<mxfile host="app.diagrams.net" modified="2023-04-26T04:21:18.550Z" agent="Mozilla/5.0 (Windows NT 10.0; Win64; x64) AppleWebKit/537.36 (KHTML, like Gecko) Chrome/112.0.0.0 Safari/537.36" version="21.2.2" etag="6MWbFvfRuA5Tizv9qTR9" type="github">
  <diagram name="Страница 1" id="vW63RPtkCZ-0gXMF1yBH">
    <mxGraphModel>
      <root>
        <mxCell id="0" />
        <mxCell id="1" parent="0" />
      </root>
    </mxGraphModel>
  </diagram>
</mxfile>
